<?xml version="1.0" encoding="UTF-8" standalone="no"?>
<svg
   xmlns:dc="http://purl.org/dc/elements/1.1/"
   xmlns:cc="http://creativecommons.org/ns#"
   xmlns:rdf="http://www.w3.org/1999/02/22-rdf-syntax-ns#"
   xmlns:svg="http://www.w3.org/2000/svg"
   xmlns="http://www.w3.org/2000/svg"
   xmlns:sodipodi="http://sodipodi.sourceforge.net/DTD/sodipodi-0.dtd"
   xmlns:inkscape="http://www.inkscape.org/namespaces/inkscape"
   fill="#FFC107"
   width="48"
   height="48"
   viewBox="0 0 48 48"
   id="svg2"
   version="1.1"
   inkscape:version="0.91 r13725"
   sodipodi:docname="person.svg">
  <metadata
     id="metadata10">
    <rdf:RDF>
      <cc:Work
         rdf:about="">
        <dc:format>image/svg+xml</dc:format>
        <dc:type
           rdf:resource="http://purl.org/dc/dcmitype/StillImage" />
      </cc:Work>
    </rdf:RDF>
  </metadata>
  <defs
     id="defs8" />
  <sodipodi:namedview
     pagecolor="#ffffff"
     bordercolor="#666666"
     borderopacity="1"
     objecttolerance="10"
     gridtolerance="10"
     guidetolerance="10"
     inkscape:pageopacity="0"
     inkscape:pageshadow="2"
     inkscape:window-width="1920"
     inkscape:window-height="1017"
     id="namedview6"
     showgrid="false"
     inkscape:zoom="4.9166667"
     inkscape:cx="-0.3630878"
     inkscape:cy="32.623714"
     inkscape:window-x="-4"
     inkscape:window-y="-4"
     inkscape:window-maximized="1"
     inkscape:current-layer="svg2" />
  <path
     style="opacity:1;fill:#b3b3b3;fill-opacity:1"
     d="M 24 0 C 10.704 0 0 10.704 0 24 C 0 37.296 10.704 48 24 48 C 37.296 48 48 37.296 48 24 C 48 10.704 37.296 0 24 0 z "
     id="rect3338" />
  <path
     d="M 24 8 C 19.58 8 16 11.58 16 16 C 16 20.41 19.58 24 24 24 C 28.42 24 32 20.41 32 16 C 32 11.58 28.42 8 24 8 z M 24 28 C 18.67 28 8 30.67 8 36 L 8 40 L 40 40 L 40 36 C 40 30.67 29.33 28 24 28 z "
     id="path4" />
  <path
     style="opacity:1;fill:#ffffff;fill-opacity:1"
     d="M 24 28.205078 C 22.159187 28.205078 20.318871 28.335283 19.119141 28.59375 C 14.998396 29.48151 11.664425 30.911065 9.921875 32.541016 C 8.3370765 34.02341 8.1347656 34.581215 8.1347656 37.457031 L 8.1347656 39.904297 L 24 39.904297 L 39.865234 39.904297 L 39.865234 37.457031 C 39.865234 34.581215 39.662924 34.02341 38.078125 32.541016 C 36.335576 30.911065 33.001604 29.48151 28.880859 28.59375 C 27.681129 28.335284 25.840813 28.205078 24 28.205078 z "
     id="path3340" />
  <path
     style="opacity:1;fill:#ffffff;fill-opacity:1"
     d="M 21.416916,23.470152 C 14.828405,21.121371 14.254196,12.020249 20.500506,8.9452015 21.772393,8.3190532 21.987886,8.2779661 24,8.2779661 c 2.012114,0 2.227607,0.041087 3.499494,0.6672354 4.85305,2.3891485 5.890413,8.7581645 2.054442,12.6135045 -1.53631,1.544067 -2.944877,2.140634 -5.248851,2.223033 -1.394913,0.04989 -2.082194,-0.02426 -2.888169,-0.311587 z"
     id="path3342"
     inkscape:connector-curvature="0" />
  <path
     style="opacity:1;fill:#ffffff;fill-opacity:1"
     d="m 17.282819,20.30463 c -0.492814,-0.767888 -0.882442,-1.721442 -1.102704,-2.698698 -0.09705,-0.430606 -0.111691,-0.644063 -0.110733,-1.614839 0.0012,-1.205704 0.05977,-1.623147 0.34844,-2.483087 0.153645,-0.4577 0.442015,-1.113247 0.475137,-1.080125 0.01311,0.01311 -0.05751,0.213841 -0.156934,0.446067 -0.615834,1.438403 -0.78179,3.137595 -0.460848,4.718528 0.175955,0.866735 0.615163,1.967308 1.066941,2.673551 0.100041,0.156389 0.170452,0.295785 0.156469,0.309768 -0.01398,0.01398 -0.111079,-0.108041 -0.215768,-0.271165 z"
     id="path3344"
     inkscape:connector-curvature="0" />
  <path
     style="opacity:1;fill:#ffffff;fill-opacity:1"
     d="m 19.512493,22.620208 c -0.02097,-0.01493 -0.08676,-0.06162 -0.146187,-0.103753 -1.130224,-0.801343 -2.045385,-1.905277 -2.634857,-3.178356 -0.02347,-0.05069 -0.02382,-0.05243 -0.01039,-0.05225 0.01158,1.54e-4 0.01966,0.0131 0.04859,0.07786 0.188115,0.421083 0.526339,1.004265 0.684388,1.180053 0.03165,0.0352 0.0468,0.0407 0.0468,0.01697 0,-0.02415 -0.07266,-0.160503 -0.166327,-0.312142 -0.132299,-0.214171 -0.291683,-0.500676 -0.28323,-0.509129 0.0017,-0.0017 0.02051,0.02956 0.0417,0.06956 0.238999,0.451141 0.59774,0.971897 0.950735,1.380107 0.463689,0.536216 1.033993,1.035941 1.607505,1.408565 l 0.07736,0.05026 -0.08898,-3e-4 -0.08898,-2.99e-4 -0.03814,-0.02714 0,0 z"
     id="path3348"
     inkscape:connector-curvature="0" />
  <path
     style="opacity:1;fill:#ffffff;fill-opacity:1"
     d="m 23.117781,23.941182 c -0.803148,-0.08716 -1.639732,-0.316853 -2.415255,-0.663124 -0.278195,-0.124215 -0.39058,-0.183886 -0.821603,-0.436234 -0.234218,-0.137126 -0.275807,-0.169913 -0.223708,-0.176364 0.04207,-0.0052 0.147655,0.04131 0.308143,0.135764 0.817082,0.480878 1.742484,0.82777 2.519527,0.944457 0.378889,0.0569 1.852794,0.06457 2.412557,0.01256 1.953074,-0.181468 3.170517,-0.738502 4.534106,-2.074552 0.494527,-0.484539 0.879759,-0.947249 1.195434,-1.435858 l 0.105205,-0.16284 0,0.116114 c 0,0.104621 -0.0204,0.144646 -0.206132,0.404366 -1.382435,1.93317 -3.465426,3.135413 -5.80658,3.351392 -0.385187,0.03553 -1.203606,0.02752 -1.601694,-0.01568 z"
     id="path3350"
     inkscape:connector-curvature="0" />
  <path
     style="opacity:1;fill:#ffffff;fill-opacity:1"
     d="m 16.902064,12.4579 c -2.12e-4,-0.02529 -0.01183,-0.03892 -0.02581,-0.03028 -0.04309,0.02663 -0.02988,-0.0046 0.104985,-0.247821 0.994108,-1.793159 2.532183,-3.0872706 4.450033,-3.7441848 1.462053,-0.5007917 3.062779,-0.557481 4.594758,-0.1627221 1.822032,0.4694995 3.46802,1.6222856 4.549532,3.1863159 0.107745,0.155816 0.156624,0.250588 0.156624,0.303681 0,0.06827 -0.02069,0.04667 -0.179242,-0.187048 C 30.270959,11.160156 30.016258,10.855408 29.615852,10.454616 28.90355,9.7416262 28.210722,9.2642701 27.201787,8.7913338 26.200946,8.3221909 25.885655,8.2708423 24.007611,8.2711263 c -2.015868,3.048e-4 -2.290147,0.053501 -3.547984,0.6881245 -1.519496,0.7666401 -2.662481,1.8654592 -3.420725,3.2885452 -0.07505,0.140853 -0.136626,0.2354 -0.136838,0.210104 z"
     id="path3352"
     inkscape:connector-curvature="0" />
  <path
     style="opacity:1;fill:#ffffff;fill-opacity:1"
     d="m 17.286039,20.286171 c -0.311117,-0.480265 -0.614234,-1.119102 -0.830306,-1.749921 -0.142482,-0.415972 -0.303852,-1.059397 -0.33968,-1.354392 -0.03573,-0.294198 -0.0362,-1.855009 -6.79e-4,-2.258336 0.05775,-0.655758 0.25091,-1.344054 0.603644,-2.151032 0.164714,-0.376831 0.161549,-0.277132 -0.0041,0.129199 -0.415431,1.019027 -0.601373,1.9701 -0.601373,3.075959 0,0.784286 0.102025,1.537592 0.295388,2.181009 0.200349,0.666664 0.50479,1.393701 0.783325,1.870659 0.259392,0.444179 0.274821,0.472738 0.262199,0.48536 -0.0068,0.0068 -0.08259,-0.09602 -0.168416,-0.228505 z"
     id="path3354"
     inkscape:connector-curvature="0" />
  <path
     style="opacity:1;fill:#ffffff;fill-opacity:1"
     d="m 16.028526,16.565333 c -0.02033,-0.306971 -0.01609,-0.946362 0.008,-1.201271 0.0112,-0.118728 0.01954,0.118708 0.0221,0.629237 0.0023,0.450953 1.16e-4,0.819915 -0.0048,0.819915 -0.0049,0 -0.01626,-0.111546 -0.02529,-0.247881 z"
     id="path3356"
     inkscape:connector-curvature="0" />
  <path
     style="opacity:1;fill:#ffffff;fill-opacity:1"
     d="m 22.920676,23.895553 -0.287637,-0.03789 0.323592,-0.04967 c 0.243822,-0.03743 0.199531,-0.0435 -0.179672,-0.02461 -0.365385,0.01819 -0.47374,0.0044 -0.395501,-0.05022 0.08095,-0.05655 0.04962,-0.06527 -0.125942,-0.03507 -0.139916,0.02407 -0.233704,0.01013 -0.233704,-0.03475 0,-0.0437 -0.06372,-0.05474 -0.152824,-0.02645 -0.109735,0.03483 -0.137608,0.02388 -0.09886,-0.03881 0.03875,-0.0627 0.01088,-0.07364 -0.09886,-0.03881 -0.0887,0.02815 -0.152824,0.01724 -0.152824,-0.02599 0,-0.04097 -0.04854,-0.05587 -0.107863,-0.03311 -0.05933,0.02276 -0.107864,0.0066 -0.107864,-0.03596 0,-0.0426 -0.05376,-0.05672 -0.11966,-0.03143 -0.08745,0.03356 -0.103629,0.01998 -0.06011,-0.05043 0.04352,-0.07041 0.02733,-0.08399 -0.06011,-0.05043 -0.06581,0.02525 -0.11966,0.01266 -0.11966,-0.02798 0,-0.04064 -0.02944,-0.0557 -0.06542,-0.03346 -0.08725,0.05393 -0.302654,-0.03188 -0.258672,-0.103043 0.03601,-0.05827 -0.390221,-0.263647 -0.484886,-0.233636 -0.02966,0.0094 -0.05393,-0.02066 -0.05393,-0.0668 0,-0.04614 -0.01818,-0.06572 -0.04039,-0.0435 -0.02222,0.02221 -0.12186,-0.03511 -0.221431,-0.127389 -0.09957,-0.09228 -0.228333,-0.149631 -0.286139,-0.127449 -0.06374,0.02446 -0.09687,0.0028 -0.08418,-0.05511 0.0115,-0.05249 -0.01953,-0.100956 -0.06897,-0.107697 -0.04944,-0.0067 -0.122246,-0.0163 -0.161796,-0.02125 -0.03955,-0.0049 -0.06382,-0.04797 -0.05393,-0.09561 0.0099,-0.04764 -0.01438,-0.09088 -0.05393,-0.0961 -0.148691,-0.0196 -0.321573,-0.12192 -0.290621,-0.172002 0.03428,-0.05546 -0.738832,-0.849905 -0.859925,-0.883654 -0.03955,-0.01102 -0.07277,-0.0524 -0.07381,-0.09195 -0.0035,-0.130551 -0.114646,-0.254803 -0.18765,-0.209684 -0.03946,0.02439 -0.06249,6.47e-4 -0.05117,-0.05276 0.02746,-0.12956 -0.225192,-0.502016 -0.306464,-0.451788 -0.06592,0.04074 -0.0709,0.02923 -0.09889,-0.228787 -0.02117,-0.195127 -0.103191,-0.327455 -0.175336,-0.282866 -0.07865,0.04861 -0.233863,-0.313527 -0.175123,-0.408571 0.0274,-0.04433 0.01459,-0.057 -0.02986,-0.02952 -0.09424,0.05824 -0.190362,-0.206395 -0.117683,-0.323992 0.03095,-0.05008 0.02046,-0.06435 -0.02614,-0.03555 -0.09424,0.05824 -0.190362,-0.206395 -0.117682,-0.323992 0.02967,-0.04801 0.02056,-0.06441 -0.0214,-0.03848 -0.04282,0.02646 -0.143085,-0.184935 -0.242013,-0.510232 -0.157178,-0.516838 -0.168528,-0.670273 -0.163425,-2.209322 0.0053,-1.59158 0.01277,-1.676341 0.198687,-2.249094 0.125541,-0.386744 0.221357,-0.577784 0.273594,-0.5455 0.05233,0.03234 0.06436,0.0079 0.03447,-0.06998 -0.05257,-0.137001 0.01044,-0.3507 0.08907,-0.3021 0.05913,0.03655 0.316536,-0.464128 0.265071,-0.515592 -0.01817,-0.01818 0.03016,-0.09625 0.107405,-0.173493 0.07725,-0.07725 0.123274,-0.168237 0.102284,-0.2022 -0.02099,-0.03396 0.01224,-0.08109 0.07384,-0.104733 0.06161,-0.02364 0.09396,-0.07218 0.07191,-0.107864 -0.02205,-0.03568 0.01289,-0.08521 0.07764,-0.110064 0.06476,-0.02485 0.09831,-0.06462 0.07455,-0.08837 -0.02375,-0.02375 0.02824,-0.102813 0.115549,-0.175687 0.08731,-0.07287 0.133342,-0.133576 0.102303,-0.134892 -0.03104,-0.0013 0.05784,-0.102729 0.197517,-0.225364 0.139673,-0.122634 0.239027,-0.247119 0.220787,-0.276633 -0.01824,-0.02951 0.06276,-0.145564 0.180006,-0.257891 0.117244,-0.112327 0.213171,-0.175943 0.213171,-0.141369 0,0.03457 0.09593,-0.02904 0.21317,-0.141368 0.117244,-0.112327 0.192834,-0.2371372 0.167977,-0.2773562 -0.02684,-0.043429 0.0013,-0.055297 0.06921,-0.029225 0.126201,0.048428 0.29894,-0.108607 0.214181,-0.1947083 -0.02932,-0.029784 0.01141,-0.042986 0.09051,-0.029338 0.08459,0.014595 0.136709,-0.01132 0.126557,-0.062926 -0.0178,-0.090481 0.219052,-0.2524823 0.319962,-0.2188455 0.03126,0.010422 0.06203,-0.010502 0.06838,-0.046497 0.01833,-0.1039879 0.233272,-0.1989747 0.323737,-0.1430639 0.05466,0.033779 0.06261,0.018851 0.02359,-0.044283 -0.04265,-0.069014 -0.02615,-0.082687 0.05994,-0.049653 0.07325,0.028107 0.112235,0.012114 0.101683,-0.041712 -0.0095,-0.048358 0.05346,-0.084923 0.141105,-0.081973 0.08702,0.00293 0.145036,-0.016008 0.128921,-0.042082 -0.04988,-0.080699 0.458276,-0.2860161 0.586295,-0.2368907 0.0815,0.031273 0.103997,0.019007 0.069,-0.037616 -0.03292,-0.053265 -0.0043,-0.07989 0.07809,-0.072736 0.252742,0.021939 0.389631,-0.012403 0.343965,-0.086293 -0.03007,-0.04865 0.025,-0.059184 0.157552,-0.030138 0.138679,0.030389 0.172847,0.022843 0.106958,-0.023622 -0.296605,-0.2091656 2.562231,-0.3724541 3.476548,-0.1985704 l 0.359546,0.068378 -0.287637,0.049387 c -0.203568,0.034952 -0.151024,0.041736 0.179773,0.023209 0.342777,-0.019198 0.438648,-0.00591 0.359546,0.049847 -0.08217,0.057913 -0.05932,0.065387 0.09591,0.031372 0.148067,-0.032446 0.189224,-0.02111 0.150551,0.041466 -0.03737,0.060467 -0.007,0.07404 0.101838,0.045569 0.08528,-0.022302 0.155063,-0.012236 0.155063,0.02237 0,0.034606 0.05385,0.042257 0.11966,0.017002 0.08745,-0.033556 0.103629,-0.019978 0.06011,0.050432 -0.0436,0.070546 -0.02727,0.083965 0.06096,0.050105 0.134312,-0.05154 0.492416,0.084694 0.441059,0.1677925 -0.0302,0.048861 0.33842,0.2350753 0.504705,0.2549617 0.03955,0.00473 0.114268,0.013529 0.16604,0.019553 0.05177,0.00602 0.07513,0.041688 0.05192,0.079254 -0.05238,0.084754 0.180246,0.211804 0.305631,0.1669224 0.05067,-0.018138 0.08303,0.010503 0.07191,0.063649 -0.01206,0.057617 0.03104,0.087992 0.106754,0.075237 0.07363,-0.012404 0.118949,0.017807 0.107864,0.071909 -0.01181,0.057644 0.03585,0.083817 0.124703,0.068486 0.0791,-0.013647 0.11983,-4.458e-4 0.09051,0.029338 -0.08476,0.086101 0.08798,0.2431361 0.21418,0.1947083 0.06794,-0.026072 0.09605,-0.014204 0.06921,0.029225 -0.02486,0.040219 0.05073,0.1650292 0.167977,0.2773562 0.117244,0.112326 0.21317,0.178034 0.21317,0.146017 0,-0.03202 0.04818,-0.01822 0.107073,0.03065 0.05889,0.04887 0.09177,0.113616 0.07307,0.143872 -0.0187,0.03026 0.125887,0.204564 0.321302,0.387353 0.195416,0.182788 0.332418,0.333418 0.30445,0.334734 -0.02797,0.0013 0.02554,0.06603 0.11891,0.143818 0.09337,0.07779 0.141909,0.142456 0.107864,0.143713 -0.03404,0.0013 9.13e-4,0.0498 0.07769,0.107864 0.07677,0.05807 0.118978,0.105577 0.09379,0.105577 -0.02519,0 0.06936,0.202244 0.210097,0.449432 0.34414,0.604428 0.703063,1.546456 0.856194,2.247162 0.166962,0.763992 0.171324,2.452209 0.0082,3.173963 -0.226067,1.000257 -0.656423,2.031128 -1.151605,2.758543 -0.121155,0.177975 -0.165429,0.27918 -0.09839,0.2249 0.06704,-0.05428 0.121896,-0.06633 0.121896,-0.02678 0,0.0912 -0.180716,0.244379 -0.230074,0.195022 -0.02039,-0.02039 -0.08213,0.02034 -0.137202,0.09051 -0.09105,0.116009 -0.08872,0.118628 0.02571,0.02889 0.06921,-0.05428 0.125841,-0.06633 0.125841,-0.02678 0,0.08812 -0.17996,0.245135 -0.227017,0.198079 -0.01871,-0.01871 -0.161344,0.102716 -0.316975,0.269826 -0.207518,0.222826 -0.220652,0.247646 -0.04926,0.09309 0.381652,-0.34416 0.265523,-0.102486 -0.14608,0.304004 -0.398029,0.393084 -0.633113,0.517572 -0.334848,0.177316 0.09534,-0.108762 0.0376,-0.07114 -0.128306,0.0836 -0.165908,0.154739 -0.281503,0.313944 -0.256879,0.353788 0.02658,0.043 -0.0028,0.05419 -0.07224,0.02754 -0.07597,-0.02915 -0.168391,0.02041 -0.263478,0.141296 -0.08056,0.102409 -0.147493,0.157565 -0.148751,0.122569 -0.0013,-0.035 -0.0498,-8.13e-4 -0.107863,0.07596 -0.05807,0.07677 -0.106606,0.109131 -0.107864,0.07191 -0.0013,-0.03722 -0.05119,-0.003 -0.110959,0.07614 -0.05977,0.0791 -0.117997,0.127639 -0.129394,0.107864 -0.0114,-0.01977 -0.186808,0.04184 -0.389804,0.136915 -0.202996,0.09508 -0.348766,0.205744 -0.323933,0.245925 0.02721,0.04402 -0.0024,0.05481 -0.07451,0.02714 -0.153103,-0.05875 -0.348279,0.01435 -0.290015,0.108626 0.02797,0.04525 -0.01569,0.05296 -0.117282,0.02072 -0.113133,-0.03591 -0.146486,-0.02654 -0.110843,0.03113 0.03592,0.05812 -0.0092,0.0693 -0.152791,0.03784 -0.131799,-0.02888 -0.171121,-0.02149 -0.111327,0.02092 0.117101,0.08306 -0.217675,0.18698 -1.090619,0.338542 -0.609903,0.105892 -1.768075,0.129629 -2.38156,0.04881 z m 1.638559,-0.134673 c -0.206194,-0.01448 -0.562144,-0.01461 -0.791001,-2.88e-4 -0.228856,0.01431 -0.06015,0.02616 0.374898,0.02632 0.43505,1.44e-4 0.622297,-0.01155 0.416103,-0.02603 l 0,-7e-6 z m 0.861653,-0.06615 c -0.04869,-0.0197 -0.145762,-0.0209 -0.215727,-0.0027 -0.06997,0.01823 -0.03013,0.03435 0.08852,0.03581 0.11865,0.0015 0.175894,-0.01345 0.127209,-0.03315 l 0,3e-6 z m 0.430087,-0.07236 c -0.04944,-0.01995 -0.130336,-0.01995 -0.179773,0 -0.04944,0.01995 -0.009,0.03627 0.08989,0.03627 0.09887,0 0.139324,-0.01632 0.08989,-0.03627 z m 0.394002,-0.06773 c -0.02389,-0.02389 -0.08592,-0.02645 -0.137826,-0.0057 -0.05736,0.02295 -0.04033,0.03999 0.04344,0.04344 0.0758,0.0031 0.118276,-0.01387 0.09438,-0.03777 l 0,-3e-6 z M 16.39011,17.903769 c -0.02296,-0.05736 -0.04,-0.04032 -0.04344,0.04345 -0.0031,0.0758 0.01387,0.118275 0.03777,0.09438 0.02389,-0.02389 0.02645,-0.08592 0.0057,-0.137826 z m -0.07191,-0.287636 c -0.02296,-0.05736 -0.03999,-0.04033 -0.04345,0.04344 -0.0031,0.0758 0.01387,0.118275 0.03777,0.09438 0.02389,-0.0239 0.02645,-0.08592 0.0057,-0.137826 z m -0.07341,-0.43595 c -0.01995,-0.04944 -0.03627,-0.009 -0.03627,0.08989 0,0.09887 0.01632,0.139324 0.03627,0.08989 0.01995,-0.04944 0.01995,-0.130335 0,-0.179773 z m 0,-2.58873 c -0.01995,-0.04944 -0.03627,-0.009 -0.03627,0.08989 0,0.09887 0.01632,0.139324 0.03627,0.08989 0.01995,-0.04944 0.01995,-0.130335 0,-0.179773 z m 0.07341,-0.355051 c -0.02296,-0.05736 -0.03999,-0.04032 -0.04345,0.04345 -0.0031,0.0758 0.01387,0.118276 0.03777,0.09438 0.02389,-0.0239 0.02645,-0.08592 0.0057,-0.137826 z m 0.07191,-0.287637 c -0.02296,-0.05736 -0.04,-0.04032 -0.04344,0.04345 -0.0031,0.07581 0.01387,0.118276 0.03777,0.09438 0.02389,-0.02389 0.02645,-0.08592 0.0057,-0.137826 z m 6.261745,-5.644839 c -0.06875,-0.017998 -0.198188,-0.018651 -0.287637,-0.00145 -0.08945,0.0172 -0.0332,0.031926 0.125003,0.032724 0.1582,7.981e-4 0.231386,-0.013275 0.162634,-0.031273 z"
     id="path3358"
     inkscape:connector-curvature="0" />
  <path
     style="opacity:1;fill:#ffffff;fill-opacity:1"
     d=""
     id="path3360"
     inkscape:connector-curvature="0" />
  <path
     style="opacity:1;fill:#ffffff;fill-opacity:1"
     d="m 31.207029,19.191074 c 0,-0.0074 0.04032,-0.108666 0.0896,-0.224957 0.263854,-0.622607 0.457493,-1.371785 0.549386,-2.125538 0.0393,-0.32237 0.05403,-1.082473 0.0277,-1.429195 -0.09192,-1.210219 -0.438061,-2.340911 -1.031885,-3.370734 -0.07412,-0.128534 -0.128249,-0.237746 -0.120296,-0.242694 0.008,-0.0049 0.0173,-0.02709 0.02077,-0.0492 0.01367,-0.08715 0.451558,0.722716 0.643825,1.190753 0.795582,1.936688 0.807482,4.085389 0.03341,6.032647 l -0.0924,0.232439 -0.06006,0 c -0.03303,0 -0.06005,-0.0061 -0.06005,-0.01352 z"
     id="path3362"
     inkscape:connector-curvature="0" />
  <path
     style="opacity:1;fill:#ffffff;fill-opacity:1"
     d="m 21.930747,14.449599 0,-4.7549933 3.399176,0 3.399177,0 0.07989,0.06546 c 0.04394,0.036003 0.0841,0.061247 0.08925,0.056098 0.0051,-0.00515 -0.02496,-0.034606 -0.06692,-0.06546 l -0.07628,-0.056098 0.06837,0 c 0.08891,0 0.196021,0.082765 0.672069,0.5193213 0.493226,0.452308 1.228841,1.378473 1.225523,1.542975 -5.1e-4,0.02534 -0.01035,0.02076 -0.04699,-0.02187 -0.06977,-0.08119 -0.03898,-0.01155 0.08541,0.193204 0.488699,0.804401 0.839801,1.748597 1.004275,2.700733 0.07298,0.422474 0.0954,0.682121 0.108688,1.258817 l 0.01326,0.575274 -0.0048,-0.602239 c -0.0039,-0.496541 -0.0115,-0.651145 -0.04311,-0.880888 -0.149209,-1.084325 -0.438316,-1.942112 -0.995909,-2.954881 -0.102747,-0.186623 -0.128123,-0.263458 -0.08682,-0.262897 0.01887,2.58e-4 0.133686,0.189572 0.277935,0.458264 0.488713,0.91033 0.777546,1.840364 0.903994,2.910834 0.03841,0.325197 0.0523,1.067782 0.02658,1.421693 -0.06147,0.84597 -0.259006,1.698262 -0.572908,2.471877 -0.04664,0.114956 -0.07979,0.172804 -0.101392,0.176965 -0.07355,0.01416 -0.06827,-0.02916 0.03503,-0.287363 0.05668,-0.141683 0.134993,-0.354802 0.174021,-0.473598 0.07665,-0.233332 0.212693,-0.738391 0.210706,-0.782277 -6.7e-4,-0.01483 -0.03651,0.106515 -0.07964,0.269659 -0.09222,0.348835 -0.22663,0.748565 -0.355143,1.056166 l -0.09201,0.220222 -4.625731,0 -4.625729,0 0,-4.754994 z m 9.791552,3.114566 c -0.005,-0.01236 -0.0091,-0.0022 -0.0091,0.02247 0,0.02472 0.0041,0.03483 0.0091,0.02247 0.005,-0.01236 0.005,-0.03258 0,-0.04494 z m 0.05799,-0.247188 c 0.05519,-0.307489 0.09227,-0.616733 0.08902,-0.742484 -0.0016,-0.06129 -0.0055,-0.08312 -0.0088,-0.04852 -0.03021,0.320093 -0.05193,0.496995 -0.08889,0.723916 -0.04599,0.282369 -0.04734,0.292947 -0.03583,0.281315 0.0041,-0.0041 0.0241,-0.100524 0.04451,-0.21423 z m -1.274376,-5.824642 c -0.02193,-0.0308 -0.04375,-0.05213 -0.04849,-0.04739 -0.0047,0.0047 0.0097,0.03342 0.03214,0.06373 0.05319,0.07194 0.06839,0.05674 0.01634,-0.01634 z m -0.164942,-0.22641 c -0.111437,-0.155173 -0.364913,-0.447547 -0.55182,-0.6365 -0.176769,-0.178705 -0.178692,-0.180098 -0.0361,-0.02616 0.163218,0.176205 0.427964,0.486108 0.551465,0.645527 0.09329,0.120421 0.119463,0.13272 0.03645,0.01713 z M 29.33739,10.178416 c -0.14866,-0.135175 -0.269659,-0.2366305 -0.269659,-0.2261041 0,0.011635 0.347153,0.3172611 0.359546,0.3165361 0.0049,-2.89e-4 -0.03551,-0.04098 -0.08989,-0.09043 z"
     id="path3364"
     inkscape:connector-curvature="0" />
  <path
     style="opacity:1;fill:#ffffff;fill-opacity:1"
     d="m 30.73979,20.179826 c -1.59e-4,-0.104444 0.0073,-0.125419 0.105741,-0.296625 0.05825,-0.101328 0.161257,-0.295467 0.228901,-0.431421 0.120441,-0.242063 0.124209,-0.247187 0.181726,-0.247187 0.0323,0 0.05873,0.0063 0.05873,0.01396 0,0.0504 -0.348851,0.715029 -0.506936,0.965805 l -0.06799,0.107864 -1.71e-4,-0.112393 z"
     id="path3366"
     inkscape:connector-curvature="0" />
  <path
     style="opacity:1;fill:#ffffff;fill-opacity:1"
     d="m 21.930747,30.928221 0,-2.658204 0.220221,-0.01206 c 1.799172,-0.09857 4.087935,-0.03301 5.622398,0.161042 0.63856,0.08075 1.05073,0.15953 1.932559,0.369365 1.754297,0.417443 3.385352,0.95178 4.853868,1.590138 0.406575,0.176736 1.285097,0.617588 1.622185,0.81403 l 0.25591,0.149134 0.0048,1.122385 0.0048,1.122385 -7.258331,-3e-6 -7.258331,-2e-6 0,-2.658205 z"
     id="path3368"
     inkscape:connector-curvature="0" />
  <path
     style="opacity:1;fill:#ffffff;fill-opacity:1"
     d=""
     id="path3370"
     inkscape:connector-curvature="0" />
  <path
     style="opacity:1;fill:#ffffff;fill-opacity:1"
     d="m 36.132806,31.148903 c -0.95553,-0.550316 -2.325952,-1.142269 -3.719223,-1.606516 -1.450545,-0.483331 -3.255018,-0.940511 -4.325614,-1.095935 -1.544884,-0.224279 -3.924279,-0.306698 -5.928012,-0.205339 l -0.22921,0.01159 0,-0.06487 c 0,-0.08194 -0.0474,-0.07395 0.844932,-0.142403 0.39803,-0.03053 2.044291,-0.03032 2.4539,3.21e-4 1.765446,0.132057 3.416666,0.393717 5.123528,0.8119 2.267552,0.555553 4.262224,1.304374 5.846972,2.195016 l 0.238056,0.13379 1.44e-4,0.06742 c 7.2e-5,0.03708 -0.0019,0.06707 -0.0044,0.06664 -0.0025,-4.27e-4 -0.137975,-0.07765 -0.301119,-0.17161 l -2e-6,0 z"
     id="path3372"
     inkscape:connector-curvature="0" />
  <path
     style="opacity:1;fill:#ffffff;fill-opacity:1"
     d="M 25.292969 28.046875 L 23.755859 28.068359 C 22.910477 28.079369 22.158144 28.098338 22.083984 28.111328 C 21.869626 28.14888 21.911393 28.228901 22.154297 28.244141 L 22.361328 28.257812 L 22.128906 28.263672 C 21.785448 28.274334 20.704217 28.368894 20.1875 28.433594 C 18.443033 28.652016 15.555289 29.478279 13.625 30.310547 C 11.947354 31.033885 10.712267 31.807594 9.7265625 32.751953 C 8.7829989 33.655939 8.4204755 34.272068 8.265625 35.234375 C 8.1973094 35.658916 8.1434586 36.62874 8.1425781 37.447266 L 8.1425781 38.085938 L 16.726562 38.085938 L 25.310547 38.085938 L 25.300781 33.160156 L 25.291016 28.234375 L 24.761719 28.226562 L 24.230469 28.21875 L 24.761719 28.207031 C 25.271189 28.196481 25.292969 28.194827 25.292969 28.123047 L 25.292969 28.046875 z M 22.75 28.207031 C 22.943833 28.200594 23.251702 28.200531 23.433594 28.207031 C 23.615486 28.213511 23.455804 28.218785 23.080078 28.21875 C 22.704356 28.21871 22.556166 28.213531 22.75 28.207031 z "
     id="path3374" />
  <path
     style="opacity:1;fill:#ffffff;fill-opacity:1"
     d="M 25.097656 28.058594 C 24.903218 28.051778 24.513611 28.056481 23.736328 28.066406 C 22.881059 28.077326 22.128723 28.098048 22.064453 28.111328 C 21.89976 28.145367 21.913722 28.232581 22.083984 28.238281 C 22.15814 28.240761 21.951287 28.265276 21.625 28.291016 C 20.247496 28.399689 19.63702 28.488185 18.550781 28.738281 C 14.953456 29.566532 12.008121 30.823497 10.240234 32.285156 C 9.8265545 32.62718 9.1574598 33.304989 8.9394531 33.601562 C 8.3198661 34.44444 8.1436781 35.28527 8.1425781 37.412109 L 8.1425781 38.085938 L 16.726562 38.085938 L 25.310547 38.085938 L 25.300781 33.160156 L 25.291016 28.234375 L 25.013672 28.226562 L 24.734375 28.220703 L 25.013672 28.207031 C 25.26747 28.195871 25.292969 28.188824 25.292969 28.121094 C 25.292969 28.083924 25.292095 28.06541 25.097656 28.058594 z M 22.892578 28.208984 C 22.947231 28.200674 23.028046 28.200484 23.072266 28.208984 C 23.116488 28.217514 23.071536 28.224879 22.972656 28.224609 C 22.873786 28.224339 22.837928 28.217284 22.892578 28.208984 z "
     id="path3376" />
  <path
     style="opacity:1;fill:#ffffff;fill-opacity:1"
     d="M 19.255859 28.529297 C 19.176004 28.502678 17.548562 28.876185 16.681641 29.119141 C 14.842273 29.634625 12.898566 30.41573 11.677734 31.130859 C 9.8456179 32.204062 8.6619431 33.439311 8.2285156 34.730469 C 8.0473268 35.270222 8.0309036 35.434976 8.0097656 36.800781 C 7.9916496 37.971363 7.993678 38.085938 8.046875 38.085938 C 8.097541 38.085937 8.1063619 38.028537 8.1074219 37.646484 C 8.1092752 36.978707 8.1698816 35.694829 8.2148438 35.371094 C 8.3122339 34.66987 8.5374811 34.089526 8.9003906 33.609375 C 9.3232127 33.049956 10.17379 32.253318 10.855469 31.777344 C 12.71187 30.481138 15.756545 29.295083 18.996094 28.607422 C 19.162114 28.572182 19.278669 28.536897 19.255859 28.529297 z "
     id="path3378" />
  <path
     style="opacity:1;fill:#ffffff;fill-opacity:1"
     d=""
     id="path3380"
     inkscape:connector-curvature="0" />
  <path
     style="opacity:1;fill:#ffffff;fill-opacity:1"
     d="m 19.548344,28.461606 c 0.03461,-0.009 0.09123,-0.009 0.125841,0 0.03461,0.009 0.0063,0.01644 -0.06292,0.01644 -0.06921,0 -0.09753,-0.0074 -0.06292,-0.01644 z"
     id="path3382"
     inkscape:connector-curvature="0" />
  <path
     style="opacity:1;fill:#ffffff;fill-opacity:1"
     d="m 19.575309,28.48639 c 0,-0.01977 0.01713,-0.03595 0.03808,-0.03595 0.02094,0 0.02808,0.01618 0.01586,0.03595 -0.01222,0.01977 -0.02936,0.03596 -0.03808,0.03596 -0.0087,0 -0.01586,-0.01618 -0.01586,-0.03596 z"
     id="path3384"
     inkscape:connector-curvature="0" />
  <path
     style="opacity:1;fill:#ffffff;fill-opacity:1"
     d="m 19.575309,28.48639 c 0,-0.01977 0.01523,-0.03595 0.03383,-0.03595 0.01861,0 0.04383,0.01618 0.05605,0.03595 0.01222,0.01977 -0.003,0.03596 -0.03383,0.03596 -0.03083,0 -0.05605,-0.01618 -0.05605,-0.03596 z"
     id="path3388"
     inkscape:connector-curvature="0" />
  <path
     style="opacity:1;fill:#ffffff;fill-opacity:1"
     d="M 24.642578 28.046875 C 23.864864 28.034235 22.312723 28.071412 22.099609 28.107422 C 21.945189 28.133511 21.891003 28.217337 22.011719 28.242188 C 22.046326 28.249307 21.799066 28.275721 21.462891 28.300781 C 21.126716 28.325836 20.601435 28.378769 20.294922 28.417969 C 19.988409 28.457169 19.703016 28.481273 19.660156 28.470703 C 19.617296 28.460133 19.574959 28.463899 19.568359 28.480469 C 19.561779 28.497035 19.249028 28.577596 18.871094 28.660156 C 17.648151 28.927308 16.157812 29.351009 15.113281 29.726562 C 14.811129 29.835202 14.558081 29.917456 14.550781 29.910156 C 14.521526 29.880901 16.242057 29.295278 16.789062 29.148438 C 16.92749 29.111277 17.015565 29.076514 16.984375 29.070312 C 16.883855 29.050321 15.433208 29.504074 14.585938 29.820312 C 13.00971 30.408628 11.67202 31.081993 10.71875 31.767578 C 9.2654041 32.812813 8.3917944 33.957101 8.1191406 35.173828 C 8.0616626 35.430327 7.9828654 37.66266 8.0214844 37.935547 C 8.0632494 38.230661 8.0873089 38.040011 8.1074219 37.283203 L 8.1289062 36.521484 L 8.1347656 37.304688 L 8.1425781 38.085938 L 16.726562 38.085938 L 25.310547 38.085938 L 25.300781 33.160156 L 25.291016 28.234375 L 25.15625 28.228516 L 25.021484 28.222656 L 25.158203 28.208984 C 25.261643 28.198174 25.292969 28.179253 25.292969 28.126953 C 25.292969 28.062933 25.252236 28.056775 24.642578 28.046875 z M 14.433594 29.945312 C 14.496064 29.928622 14.508183 29.931918 14.470703 29.955078 C 14.44104 29.973408 14.375612 29.998499 14.326172 30.011719 C 14.263702 30.028409 14.251584 30.025113 14.289062 30.001953 C 14.318727 29.983623 14.384154 29.958533 14.433594 29.945312 z M 14.207031 30.044922 C 14.215179 30.053072 14.151266 30.086784 14.066406 30.121094 C 13.820394 30.22055 13.788195 30.220674 13.998047 30.121094 C 14.104426 30.070614 14.198931 30.036822 14.207031 30.044922 z M 13.769531 30.212891 C 13.789301 30.212891 13.77966 30.228877 13.75 30.248047 C 13.72033 30.267217 13.679926 30.283203 13.660156 30.283203 C 13.640386 30.283203 13.650027 30.267217 13.679688 30.248047 C 13.709357 30.228877 13.749751 30.212891 13.769531 30.212891 z M 13.517578 30.322266 C 13.537358 30.322266 13.512331 30.344787 13.462891 30.373047 C 13.413449 30.401307 13.357661 30.425781 13.337891 30.425781 C 13.318111 30.425781 13.341185 30.401307 13.390625 30.373047 C 13.440066 30.344787 13.497808 30.322266 13.517578 30.322266 z M 13.193359 30.466797 C 13.213134 30.466797 13.124632 30.522554 12.996094 30.589844 C 12.867556 30.657136 12.746333 30.712891 12.726562 30.712891 C 12.706789 30.712891 12.79529 30.657134 12.923828 30.589844 C 13.052365 30.522552 13.173579 30.466797 13.193359 30.466797 z M 12.40625 30.865234 C 12.376945 30.887055 12.228637 30.973604 11.970703 31.115234 C 11.425922 31.414372 10.635737 31.946047 10.226562 32.289062 C 9.7491857 32.689253 9.0506194 33.421489 8.8261719 33.757812 C 8.6200958 34.066606 8.5753484 34.126424 8.6464844 33.988281 C 8.7784411 33.732026 9.0266858 33.420452 9.4335938 33.003906 C 10.292906 32.124238 11.072025 31.543725 12.125 31 C 12.345951 30.885907 12.435555 30.843413 12.40625 30.865234 z M 8.5253906 34.25 C 8.5332156 34.257825 8.507316 34.334945 8.46875 34.421875 C 8.430183 34.508805 8.3978844 34.569116 8.3964844 34.554688 C 8.3923644 34.512121 8.5098476 34.23446 8.5253906 34.25 z M 8.3789062 34.609375 C 8.3871654 34.617634 8.3634655 34.759674 8.3242188 34.925781 C 8.2849719 35.091887 8.2362739 35.357425 8.2167969 35.515625 L 8.1816406 35.802734 L 8.1972656 35.519531 C 8.2126087 35.251166 8.3469564 34.577425 8.3789062 34.609375 z M 8.1679688 35.974609 C 8.1757285 36.048765 8.1757285 36.169981 8.1679688 36.244141 C 8.1602145 36.318298 8.1542969 36.257687 8.1542969 36.109375 C 8.1542969 35.961065 8.1602088 35.900449 8.1679688 35.974609 z "
     id="path3390" />
  <path
     style="opacity:1;fill:#ffffff;fill-opacity:1"
     d="m 19.670004,28.440468 c 0.03117,-0.02999 2.046109,-0.31772 2.241525,-0.320084 0.01049,-1.27e-4 0.01907,0.02755 0.01907,0.0615 0,0.07164 0.04087,0.06494 -0.788136,0.129222 -0.286652,0.02223 -0.696094,0.06272 -0.90987,0.08998 -0.367252,0.04684 -0.586271,0.06217 -0.562587,0.03938 z"
     id="path3392"
     inkscape:connector-curvature="0" />
  <path
     style="opacity:1;fill:#ffffff;fill-opacity:1"
     d="M 8.1074219 37.921875 C 8.1008479 38.050873 8.0790044 38.102018 8.0371094 38.085938 C 8.0171634 38.078283 8.0136719 38.241163 8.0136719 39.037109 L 8.0136719 39.998047 L 12.203125 39.998047 L 16.390625 39.998047 L 16.390625 39.953125 L 16.390625 39.908203 L 12.255859 39.908203 L 8.1210938 39.908203 L 8.1171875 38.851562 C 8.1152475 38.270671 8.1109319 37.853075 8.1074219 37.921875 z "
     id="path3394" />
  <path
     style="opacity:1;fill:#ffffff;fill-opacity:1"
     d="m 16.403139,39.953646 0,-0.04494 4.790948,0 4.790948,0 0,0.04494 0,0.04494 -4.790948,0 -4.790948,0 0,-0.04494 z"
     id="path3396"
     inkscape:connector-curvature="0" />
  <path
     style="opacity:1;fill:#ffffff;fill-opacity:1"
     d="m 26.00108,39.953646 0,-0.04494 5.123527,0 5.123528,0 0,0.04494 0,0.04494 -5.123528,0 -5.123527,0 0,-0.04494 z"
     id="path3400"
     inkscape:connector-curvature="0" />
  <path
     style="opacity:1;fill:#ffffff;fill-opacity:1"
     d="M 38.806641 33.167969 C 38.768211 33.167969 38.738281 33.170581 38.738281 33.175781 C 38.738281 33.181008 38.802613 33.260683 38.882812 33.351562 C 39.422465 33.963031 39.684004 34.57151 39.787109 35.451172 C 39.849419 35.98277 39.856534 36.166783 39.865234 38.025391 L 39.873047 39.908203 L 38.064453 39.908203 L 36.255859 39.908203 L 36.255859 39.953125 L 36.255859 39.998047 L 38.126953 39.998047 L 39.998047 39.998047 L 39.990234 37.810547 C 39.984714 35.828594 39.981595 35.602569 39.953125 35.431641 C 39.909601 35.170304 39.830876 34.858849 39.753906 34.648438 C 39.601243 34.231086 39.272786 33.655759 38.982422 33.296875 C 38.884293 33.17561 38.871711 33.167969 38.806641 33.167969 z "
     id="path3402" />
  <path
     style="opacity:1;fill:#ffffff;fill-opacity:1"
     d="m 38.366029,32.813524 c -0.587966,-0.577829 -1.128803,-1.000064 -1.835042,-1.432631 -0.08596,-0.05265 -0.09347,-0.06263 -0.09126,-0.121348 l 0.0024,-0.06398 0.08248,0.04762 c 0.04536,0.02619 0.183601,0.111879 0.307195,0.190424 0.796177,0.505975 1.46762,1.068527 1.990339,1.667555 l 0.0549,0.06292 -0.07716,0 c -0.07606,0 -0.08224,-0.005 -0.433866,-0.350557 z"
     id="path3404"
     inkscape:connector-curvature="0" />
</svg>
